<?xml version="1.0" encoding="utf-8"?>
<!-- Generator: Adobe Illustrator 27.5.0, SVG Export Plug-In . SVG Version: 6.00 Build 0)  -->
<svg version="1.1" id="Capa_1" xmlns="http://www.w3.org/2000/svg" xmlns:xlink="http://www.w3.org/1999/xlink" x="0px" y="0px"
	 viewBox="0 0 800 800" style="enable-background:new 0 0 800 800;" xml:space="preserve">
<style type="text/css">
	.st0{fill:#FFFFFF;}
	.st1{fill:#FFBF00;}
	.st2{fill:#1D1D1B;}
</style>
<rect x="90" y="90" class="st1" width="620" height="620"/>
<g>
	<path class="st2" d="M603.2,308.2H417.4v182h48.2v-73.8h137.5c18.4,0,33.3-15,33.3-33.3v-41.5C636.5,323.1,621.5,308.2,603.2,308.2
		z M588.3,343.2v38.4H465.6v-38.4H588.3z"/>
	<g>
		<path class="st2" d="M612.5,453.6c-11.1,0-19.4,8.4-19.4,19.2c0,10.7,8.3,19.1,19.4,19.1c11.1,0,19.3-8.3,19.3-19.1
			C631.8,462,623.6,453.6,612.5,453.6z M612.5,488.2c-9.1,0-15.3-7-15.3-15.4c0-8.4,6.3-15.5,15.3-15.5c9.1,0,15.2,7.1,15.2,15.5
			C627.7,481.1,621.5,488.2,612.5,488.2z"/>
		<path class="st2" d="M621.5,468.1c0-4.2-3-6.7-8.4-6.7h-8.7v21.2h4.8v-7.9h2.9l4.4,7.9h5.6l-5.2-8.7
			C619.4,473.2,621.5,471.2,621.5,468.1z M613.1,471h-3.9v-5.7h4c1.8,0,3.2,1,3.2,2.8C616.5,470.2,615,471,613.1,471z"/>
	</g>
	<path class="st2" d="M336.6,308.3L211,308.2l-1.7,0c-25.3,0.1-45.9,20.7-45.9,46v17.4h48.2v-13c0-11,8.3-14.9,15.4-14.9
		c3,0,84.7-0.4,85.8-0.4c5-0.1,10.2-0.3,14.5,2.5c4.3,2.8,6.9,7.7,6.9,12.8l0,6c-0.4,9.6-3.5,13.5-31.5,26.4l-136.1,63.4l-3.3,1.6
		v34.7h219.1v-34.9H245.9l29.5-12.7l42.6-19.7c10.2-4.7,20.1-9.3,28.2-13.5l5.7-3.1c21.6-12.1,29.4-22.8,30.5-41.5h0.1v-11
		C382.6,328.9,362,308.3,336.6,308.3z"/>
</g>
</svg>
