<?xml version="1.0" encoding="utf-8"?>
<!-- Generator: Adobe Illustrator 27.5.0, SVG Export Plug-In . SVG Version: 6.00 Build 0)  -->
<svg version="1.1" id="Capa_1" xmlns="http://www.w3.org/2000/svg" xmlns:xlink="http://www.w3.org/1999/xlink" x="0px" y="0px"
	 viewBox="0 0 2825 544" style="enable-background:new 0 0 2825 544;" xml:space="preserve">
<style type="text/css">
	.st0{fill:#FFFFFF;}
	.st1{fill:#FFBF00;}
	.st2{fill:#1D1D1B;}
</style>
<g>
	<path d="M1378.5,180.8h-133.7c-23.9,0-43.4,19.5-43.4,43.4v20.5c0,24.2,19.9,44.6,43.4,44.6l111.9,0.2c7.8,0,16.8,2,16.8,17.9v4.4
		c0,12.2-8.8,16.6-17,16.6h-93.2c-7.3,0-13.2-5.9-13.2-13.2v-6.6h-48.6v10.9c0,23.9,19.5,43.4,43.4,43.4h133.7
		c23.9,0,43.4-19.5,43.4-43.4v-21.6c0-23.9-19.5-43.4-43.4-43.4h-115.2c-8.5,0-13.2-5.7-13.2-16v-4.9c0-12.6,5.1-17.7,17.7-17.7
		h88.6c15.4,0,17.2,8.7,17.2,15.2v4h48.3v-10.9C1421.9,200.2,1402.4,180.8,1378.5,180.8z"/>
	<path d="M1628.6,180.7h-126.8c-25.4,0-46,20.6-46,46v90c0,25.4,20.6,46,46,46h126.8c25.4,0,46-20.6,46-46v-90
		C1674.6,201.4,1654,180.7,1628.6,180.7z M1626.7,230.9v82.1c0,10.2-6,15.2-18.2,15.2H1522c-11.2,0-18.2-5.8-18.2-15.2v-82.1
		c0-9.4,7-15.2,18.2-15.2h86.5C1620.7,215.6,1626.7,220.6,1626.7,230.9z"/>
	<polygon points="2134,338.5 2046.7,181.1 2046.6,180.8 1963.3,180.7 1963.3,363 2011.5,363 2011.5,204.9 2099,362.7 2099.2,363 
		2146.5,363 2182.2,363 2182.2,180.7 2134,180.7 	"/>
	<polygon points="1880.9,338.5 1793.6,181.1 1793.5,180.8 1710.2,180.7 1710.2,363 1758.4,363 1758.4,204.9 1845.9,362.7 
		1846.1,363 1893.4,363 1929.1,363 1929.1,180.7 1880.9,180.7 	"/>
	<path d="M1133.8,288.6c18.2,0,33-14.8,33-33v-41.8c0-18.2-14.8-33-33-33h-186v182h48.2v-74.1h81.4l41.6,74.1h48.4l-41.6-74.1
		H1133.8z M1118.6,215.6v38.7H995.9v-38.7H1118.6z"/>
	<path d="M656.8,180.7H471.1v182h48.2v-73.8h137.5c18.4,0,33.3-15,33.3-33.3v-41.5C690.2,195.7,675.2,180.7,656.8,180.7z M642,215.8
		v38.4H519.3v-38.4H642z"/>
	<polygon points="724.6,363.3 913.5,363.3 913.5,328.1 772.8,328.1 772.8,289.2 876.8,289.2 876.8,254.1 772.8,254.1 772.8,215.8 
		913.5,215.8 913.5,180.7 724.6,180.7 	"/>
	<polygon points="2488.7,180.7 2440.5,180.7 2440.5,363 2607.4,363 2607.4,328.4 2488.7,328.4 	"/>
	<path d="M2640.6,181.4c-19.3,0-33.7,14.7-33.7,33.3s14.5,33.1,33.7,33.1c19.3,0,33.6-14.5,33.6-33.1S2659.9,181.4,2640.6,181.4z
		 M2640.6,241.5c-15.7,0-26.6-12.2-26.6-26.8s10.9-27,26.6-27c15.7,0,26.4,12.4,26.4,27S2656.4,241.5,2640.6,241.5z"/>
	<path d="M2656.4,206.6c0-7.2-5.2-11.6-14.7-11.6h-15v36.8h8.3v-13.7h5.1l7.7,13.7h9.8l-9-15.1
		C2652.7,215.5,2656.4,212.1,2656.4,206.6z M2641.7,211.7h-6.7v-9.9h7c3.2,0,5.6,1.7,5.6,4.9C2647.6,210.3,2645,211.7,2641.7,211.7z
		"/>
	<path d="M390.3,180.8l-125.6-0.1l-1.7,0c-25.3,0.1-45.9,20.7-45.9,46v17.4h48.2v-13c0-11,8.3-14.9,15.4-14.9c3,0,19.9-0.1,37.9-0.1
		c20-0.1,40.6-0.2,44.6-0.2c1.1,0,2.2,0,3.3-0.1c5-0.1,10.2-0.3,14.5,2.5c4.3,2.8,6.9,7.7,6.9,12.8l0,6c-0.4,9.6-3.5,13.5-31.5,26.4
		L220.5,327l-3.3,1.6v34.7h219.1v-34.9H299.6l29.5-12.7l42.6-19.7c10.2-4.7,20.1-9.3,28.2-13.5l5.7-3.1
		c21.6-12.1,29.4-22.8,30.5-41.5h0.1v-11C436.3,201.5,415.6,180.9,390.3,180.8z"/>
	<polygon points="2216.9,363.3 2405.8,363.3 2405.8,328.1 2265.1,328.1 2265.1,289.2 2369.1,289.2 2369.1,254.1 2265.1,254.1 
		2265.1,215.8 2405.8,215.8 2405.8,180.7 2216.9,180.7 	"/>
</g>
</svg>
