<?xml version="1.0" encoding="UTF-8"?>
<svg xmlns="http://www.w3.org/2000/svg" xmlns:xlink="http://www.w3.org/1999/xlink" width="90px" height="90px" viewBox="0 0 90 90" version="1.1">
<g id="surface1">
<path style=" stroke:none;fill-rule:nonzero;fill:rgb(100%,74.901961%,0%);fill-opacity:1;" d="M 10.125 10.125 L 79.875 10.125 L 79.875 79.875 L 10.125 79.875 Z M 10.125 10.125 "/>
<path style=" stroke:none;fill-rule:nonzero;fill:rgb(11.372549%,11.372549%,10.588235%);fill-opacity:1;" d="M 67.859375 34.671875 L 46.957031 34.671875 L 46.957031 55.148438 L 52.378906 55.148438 L 52.378906 46.84375 L 67.847656 46.84375 C 69.917969 46.84375 71.59375 45.15625 71.59375 43.097656 L 71.59375 38.429688 C 71.605469 36.347656 69.917969 34.671875 67.859375 34.671875 Z M 66.183594 38.609375 L 66.183594 42.929688 L 52.378906 42.929688 L 52.378906 38.609375 Z M 66.183594 38.609375 "/>
<path style=" stroke:none;fill-rule:nonzero;fill:rgb(11.372549%,11.372549%,10.588235%);fill-opacity:1;" d="M 68.90625 51.03125 C 67.65625 51.03125 66.722656 51.976562 66.722656 53.191406 C 66.722656 54.394531 67.65625 55.339844 68.90625 55.339844 C 70.15625 55.339844 71.078125 54.40625 71.078125 53.191406 C 71.078125 51.976562 70.15625 51.03125 68.90625 51.03125 Z M 68.90625 54.921875 C 67.882812 54.921875 67.183594 54.136719 67.183594 53.191406 C 67.183594 52.246094 67.894531 51.445312 68.90625 51.445312 C 69.929688 51.445312 70.617188 52.246094 70.617188 53.191406 C 70.617188 54.125 69.917969 54.921875 68.90625 54.921875 Z M 68.90625 54.921875 "/>
<path style=" stroke:none;fill-rule:nonzero;fill:rgb(11.372549%,11.372549%,10.588235%);fill-opacity:1;" d="M 69.917969 52.660156 C 69.917969 52.1875 69.582031 51.90625 68.972656 51.90625 L 67.996094 51.90625 L 67.996094 54.292969 L 68.535156 54.292969 L 68.535156 53.402344 L 68.859375 53.402344 L 69.355469 54.292969 L 69.984375 54.292969 L 69.402344 53.3125 C 69.683594 53.234375 69.917969 53.011719 69.917969 52.660156 Z M 68.972656 52.988281 L 68.535156 52.988281 L 68.535156 52.347656 L 68.984375 52.347656 C 69.1875 52.347656 69.34375 52.457031 69.34375 52.660156 C 69.355469 52.898438 69.1875 52.988281 68.972656 52.988281 Z M 68.972656 52.988281 "/>
<path style=" stroke:none;fill-rule:nonzero;fill:rgb(11.372549%,11.372549%,10.588235%);fill-opacity:1;" d="M 37.867188 34.683594 L 23.738281 34.671875 L 23.546875 34.671875 C 20.699219 34.683594 18.382812 37 18.382812 39.847656 L 18.382812 41.804688 L 23.804688 41.804688 L 23.804688 40.34375 C 23.804688 39.105469 24.738281 38.667969 25.539062 38.667969 C 25.875 38.667969 35.066406 38.621094 35.191406 38.621094 C 35.753906 38.609375 36.335938 38.585938 36.820312 38.902344 C 37.304688 39.21875 37.597656 39.769531 37.597656 40.34375 L 37.597656 41.015625 C 37.550781 42.097656 37.203125 42.535156 34.054688 43.988281 L 18.742188 51.121094 L 18.371094 51.300781 L 18.371094 55.203125 L 43.019531 55.203125 L 43.019531 51.277344 L 27.664062 51.277344 L 30.984375 49.847656 L 35.773438 47.632812 C 36.921875 47.105469 38.035156 46.585938 38.949219 46.113281 L 39.589844 45.765625 C 42.019531 44.402344 42.894531 43.199219 43.019531 41.097656 L 43.03125 41.097656 L 43.03125 39.859375 C 43.042969 37 40.726562 34.683594 37.867188 34.683594 Z M 37.867188 34.683594 "/>
</g>
</svg>
