<svg xmlns="http://www.w3.org/2000/svg" width="16" height="17" viewBox="0 0 16 17" fill="none">
  <mask id="mask0_1277_2922" style="mask-type:alpha" maskUnits="userSpaceOnUse" x="0" y="0" width="16" height="17">
    <rect y="0.5" width="16" height="16" fill="white"/>
  </mask>
  <g mask="url(#mask0_1277_2922)">
    <path d="M4.66699 14.5C4.30033 14.5 3.98644 14.3694 3.72533 14.1083C3.46421 13.8472 3.33366 13.5333 3.33366 13.1667V4.5H2.66699V3.16667H6.00033V2.5H10.0003V3.16667H13.3337V4.5H12.667V13.1667C12.667 13.5333 12.5364 13.8472 12.2753 14.1083C12.0142 14.3694 11.7003 14.5 11.3337 14.5H4.66699ZM11.3337 4.5H4.66699V13.1667H11.3337V4.5ZM6.00033 11.8333H7.33366V5.83333H6.00033V11.8333ZM8.66699 11.8333H10.0003V5.83333H8.66699V11.8333Z" fill="white"/>
  </g>
</svg>
