<svg xmlns="http://www.w3.org/2000/svg" width="16" height="17" viewBox="0 0 16 17" fill="none">
  <g clip-path="url(#clip0_487_2528)">
    <path d="M14.333 9.16699V7.41699C14.333 6.82026 14.096 6.24796 13.674 5.826C13.252 5.40405 12.6797 5.16699 12.083 5.16699H11.083C10.8841 5.16699 10.6933 5.08797 10.5527 4.94732C10.412 4.80667 10.333 4.6159 10.333 4.41699V3.41699C10.333 2.82026 10.096 2.24796 9.674 1.826C9.25204 1.40405 8.67975 1.16699 8.08301 1.16699H6.83301M7.33301 6.83366L11.333 11.167M11.333 6.83366L7.33301 11.167M8.33301 1.16699H5.08301C4.66901 1.16699 4.33301 1.50299 4.33301 1.91699V13.417C4.33301 13.831 4.66901 14.167 5.08301 14.167H13.583C13.997 14.167 14.333 13.831 14.333 13.417V7.16699C14.333 5.57569 13.7009 4.04957 12.5756 2.92435C11.4504 1.79913 9.92431 1.16699 8.33301 1.16699Z" stroke="white" stroke-width="1.5" stroke-linecap="round" stroke-linejoin="round"/>
  </g>
  <defs>
    <clipPath id="clip0_487_2528">
      <rect width="16" height="16" fill="white" transform="translate(0 0.5)"/>
    </clipPath>
  </defs>
</svg>
