<svg xmlns="http://www.w3.org/2000/svg" width="16" height="17" viewBox="0 0 16 17" fill="none">
  <path d="M8 2.5C9.83667 2.5 11.6367 2.65467 13.3887 2.952C13.744 3.012 14 3.32267 14 3.68267V4.37867C14 4.57565 13.9612 4.77071 13.8858 4.9527C13.8104 5.13469 13.7 5.30005 13.5607 5.43934L9.93933 9.06067C9.80005 9.19996 9.68956 9.36532 9.61418 9.54731C9.5388 9.7293 9.5 9.92435 9.5 10.1213V12.0727C9.50005 12.3513 9.42249 12.6245 9.27601 12.8615C9.12952 13.0985 8.91991 13.2901 8.67067 13.4147L6.5 14.5V10.1213C6.5 9.92435 6.4612 9.7293 6.38582 9.54731C6.31044 9.36532 6.19995 9.19996 6.06067 9.06067L2.43933 5.43934C2.30005 5.30005 2.18956 5.13469 2.11418 4.9527C2.0388 4.77071 2 4.57565 2 4.37867V3.68267C2 3.32267 2.256 3.012 2.61133 2.952C4.39171 2.65057 6.19428 2.49937 8 2.5Z" stroke="#010101" stroke-width="1.5" stroke-linecap="round" stroke-linejoin="round"/>
</svg>
