<svg xmlns="http://www.w3.org/2000/svg" width="25" height="24" viewBox="0 0 25 24" fill="none">
  <mask id="mask0_2382_3660" style="mask-type:alpha" maskUnits="userSpaceOnUse" x="0" y="0" width="25" height="24">
    <rect x="0.5" width="24" height="24" fill="#D9D9D9"/>
  </mask>
  <g mask="url(#mask0_2382_3660)">
    <path d="M7.50001 13.6153C7.05258 13.6153 6.67149 13.458 6.35676 13.1432C6.04203 12.8285 5.88466 12.4474 5.88466 12C5.88466 11.5525 6.04203 11.1715 6.35676 10.8567C6.67149 10.542 7.05258 10.3846 7.50001 10.3846C7.94744 10.3846 8.32853 10.542 8.64326 10.8567C8.958 11.1715 9.11536 11.5525 9.11536 12C9.11536 12.4474 8.958 12.8285 8.64326 13.1432C8.32853 13.458 7.94744 13.6153 7.50001 13.6153ZM7.50001 17.5C5.97438 17.5 4.67631 16.9647 3.60581 15.8942C2.53531 14.8237 2.00006 13.5256 2.00006 12C2.00006 10.4743 2.53531 9.17628 3.60581 8.10578C4.67631 7.03526 5.97438 6.5 7.50001 6.5C8.57179 6.5 9.54102 6.77661 10.4077 7.32982C11.2744 7.88302 11.9359 8.60642 12.3923 9.5H21.3942L23.8942 12L20.0481 15.8269L18.1923 14.4326L16.2885 15.8461L14.3366 14.5H12.3923C11.9359 15.3871 11.2744 16.1089 10.4077 16.6653C9.54102 17.2217 8.57179 17.5 7.50001 17.5ZM7.50001 16C8.45899 16 9.28944 15.7102 9.99136 15.1308C10.6933 14.5513 11.1513 13.841 11.3654 13H14.8077L16.2481 13.9961L18.202 12.5673L19.9 13.8654L21.7654 12L20.7654 11H11.3654C11.1513 10.159 10.6933 9.4487 9.99136 8.8692C9.28944 8.28972 8.45899 7.99998 7.50001 7.99998C6.40001 7.99998 5.45834 8.39164 4.67501 9.17498C3.89168 9.95831 3.50001 10.9 3.50001 12C3.50001 13.1 3.89168 14.0416 4.67501 14.825C5.45834 15.6083 6.40001 16 7.50001 16Z" fill="#1C1B1F"/>
  </g>
</svg>
